/* XPM */
static char * call_arrow_hollow_xpm[] = {
"16 16 2 1",
" 	c None",
".	c #000000",
"                ",
"                ",
"  ........      ",
"  .      .      ",
"  .     .       ",
"  .    .        ",
"  .     .       ",
"  .  .   .      ",
"  . . .  .      ",
"  ..   . .      ",
"       . .      ",
"       . .      ",
"      .  .      ",
"      . .       ",
"      ..        ",
"                "};
